<?xml version="1.0" standalone="no"?>
<!DOCTYPE svg PUBLIC "-//W3C//DTD SVG 20010904//EN"
 "http://www.w3.org/TR/2001/REC-SVG-20010904/DTD/svg10.dtd">
<svg version="1.0" xmlns="http://www.w3.org/2000/svg"
 width="421.000000pt" height="421.000000pt" viewBox="0 0 421.000000 421.000000"
 preserveAspectRatio="xMidYMid meet">
<metadata>
Created by potrace 1.11, written by Peter Selinger 2001-2013
</metadata>
<g transform="translate(0.000000,421.000000) scale(0.100000,-0.100000)"
fill="#000000" stroke="none">
<path d="M2130 3694 c-30 -7 -57 -13 -60 -15 -3 -1 -13 -4 -23 -7 -11 -3 -56
-23 -100 -45 -45 -21 -98 -41 -117 -44 -102 -14 -236 -81 -313 -158 -27 -27
-55 -45 -69 -45 -27 0 -108 -35 -109 -47 0 -4 -2 -24 -3 -43 -4 -46 -13 -79
-26 -95 -14 -17 -61 -107 -65 -125 -2 -8 -20 -60 -39 -115 -19 -56 -38 -123
-42 -150 -9 -63 -11 -571 -2 -607 5 -21 3 -25 -8 -21 -8 3 -14 8 -14 12 0 12
-45 10 -63 -3 -45 -34 -43 -198 6 -392 l13 -51 -45 -1 c-93 0 -102 -2 -128
-28 l-26 -26 8 -181 c7 -191 8 -204 20 -437 5 -80 9 -157 9 -172 1 -19 -13
-42 -51 -81 -46 -48 -133 -187 -117 -187 4 0 2 -6 -4 -12 -8 -11 -28 -71 -38
-113 -1 -5 -7 -30 -14 -55 -12 -45 -17 -65 -26 -109 -3 -14 -7 -28 -9 -32 -9
-13 20 -16 174 -18 85 -1 158 -4 163 -7 11 -7 2165 -7 2177 0 4 3 85 6 180 7
197 2 181 -10 151 119 -56 234 -106 338 -211 437 -27 25 -35 40 -33 61 2 15 6
90 9 167 3 77 7 163 10 190 6 72 19 343 18 389 -2 63 -34 87 -117 88 l-68 1 6
31 c3 17 8 42 11 56 3 14 7 36 10 50 3 14 7 36 10 50 3 14 8 61 10 105 6 129
-34 192 -97 151 l-23 -15 2 102 c10 479 3 551 -69 706 -16 36 -32 86 -34 111
-2 25 -6 55 -9 67 -4 17 1 26 24 38 17 8 36 15 44 15 24 0 29 31 11 59 -23 35
-131 141 -169 166 -60 39 -114 64 -175 80 -3 0 -14 4 -25 8 -11 3 -33 8 -49
11 -16 3 -52 10 -80 15 -28 6 -68 12 -89 14 -46 6 -52 11 -42 34 5 10 9 21 10
26 2 4 3 8 5 10 1 1 3 10 5 20 8 42 -171 67 -285 41z"/>
</g>
</svg>
